<svg xmlns="http://www.w3.org/2000/svg" xmlns:xlink="http://www.w3.org/1999/xlink" width="600" zoomAndPan="magnify" viewBox="0 0 450 112.499997" height="150" preserveAspectRatio="xMidYMid meet" version="1.0"><defs><g/><clipPath id="44db2c2fa3"><path d="M 13 0 L 441 0 L 441 112.003906 L 13 112.003906 Z M 13 0 " clip-rule="nonzero"/></clipPath><clipPath id="e900a16e66"><rect x="0" width="428" y="0" height="113"/></clipPath></defs><g clip-path="url(#44db2c2fa3)"><g transform="matrix(1, 0, 0, 1, 13, 0)"><g clip-path="url(#e900a16e66)"><g fill="#ffffff" fill-opacity="1"><g transform="translate(0.934368, 85.190191)"><g><path d="M 6.75 0 L 6.75 -63.84375 L 21.796875 -63.84375 L 43.234375 -33.46875 L 64.75 -63.84375 L 79.71875 -63.84375 L 79.71875 0 L 61.46875 0 L 61.46875 -32.28125 L 49.25 -15.140625 L 37.296875 -15.140625 L 24.984375 -32.375 L 24.984375 0 Z M 6.75 0 "/></g></g></g><g fill="#ffffff" fill-opacity="1"><g transform="translate(90.657835, 85.190191)"><g><path d="M 36.578125 1.375 C 29.941406 1.375 24.113281 -0.0195312 19.09375 -2.8125 C 14.082031 -5.613281 10.160156 -9.523438 7.328125 -14.546875 C 4.503906 -19.566406 3.09375 -25.359375 3.09375 -31.921875 C 3.09375 -38.484375 4.488281 -44.269531 7.28125 -49.28125 C 10.082031 -54.300781 13.992188 -58.207031 19.015625 -61 C 24.035156 -63.800781 29.828125 -65.203125 36.390625 -65.203125 C 42.109375 -65.203125 47.273438 -64.109375 51.890625 -61.921875 C 56.515625 -59.734375 60.390625 -56.660156 63.515625 -52.703125 C 66.648438 -48.753906 68.765625 -44.078125 69.859375 -38.671875 L 51.25 -38.671875 C 50.28125 -41.523438 48.519531 -43.816406 45.96875 -45.546875 C 43.414062 -47.285156 40.46875 -48.15625 37.125 -48.15625 C 34.144531 -48.15625 31.5 -47.46875 29.1875 -46.09375 C 26.875 -44.726562 25.0625 -42.828125 23.75 -40.390625 C 22.445312 -37.960938 21.796875 -35.140625 21.796875 -31.921875 C 21.796875 -28.753906 22.429688 -25.941406 23.703125 -23.484375 C 24.984375 -21.023438 26.765625 -19.109375 29.046875 -17.734375 C 31.328125 -16.367188 33.957031 -15.6875 36.9375 -15.6875 C 40.40625 -15.6875 43.414062 -16.582031 45.96875 -18.375 C 48.519531 -20.164062 50.375 -22.550781 51.53125 -25.53125 L 70.21875 -25.53125 C 69.3125 -20.125 67.304688 -15.398438 64.203125 -11.359375 C 61.109375 -7.316406 57.203125 -4.179688 52.484375 -1.953125 C 47.773438 0.265625 42.472656 1.375 36.578125 1.375 Z M 36.578125 1.375 "/></g></g></g><g fill="#ffffff" fill-opacity="1"><g transform="translate(167.068899, 85.190191)"><g><path d="M 44.875 0 L 44.875 -23.984375 L 25.171875 -23.984375 L 25.171875 0 L 6.75 0 L 6.75 -63.84375 L 25.171875 -63.84375 L 25.171875 -40.953125 L 44.875 -40.953125 L 44.875 -63.84375 L 63.296875 -63.84375 L 63.296875 0 Z M 44.875 0 "/></g></g></g><g fill="#ffffff" fill-opacity="1"><g transform="translate(240.379809, 85.190191)"><g><path d="M 6.75 0 L 6.75 -63.84375 L 21.796875 -63.84375 L 46.0625 -31.46875 L 46.0625 -63.84375 L 64.203125 -63.84375 L 64.203125 0 L 49.25 0 L 24.984375 -32.5625 L 24.984375 0 Z M 6.75 0 "/></g></g></g><g fill="#ffffff" fill-opacity="1"><g transform="translate(314.693702, 85.190191)"><g><path d="M 6.75 0 L 6.75 -63.84375 L 25.171875 -63.84375 L 25.171875 0 Z M 6.75 0 "/></g></g></g><g fill="#ffffff" fill-opacity="1"><g transform="translate(349.891035, 85.190191)"><g><path d="M 36.578125 1.375 C 29.941406 1.375 24.113281 -0.0195312 19.09375 -2.8125 C 14.082031 -5.613281 10.160156 -9.523438 7.328125 -14.546875 C 4.503906 -19.566406 3.09375 -25.359375 3.09375 -31.921875 C 3.09375 -38.484375 4.488281 -44.269531 7.28125 -49.28125 C 10.082031 -54.300781 13.992188 -58.207031 19.015625 -61 C 24.035156 -63.800781 29.828125 -65.203125 36.390625 -65.203125 C 42.109375 -65.203125 47.273438 -64.109375 51.890625 -61.921875 C 56.515625 -59.734375 60.390625 -56.660156 63.515625 -52.703125 C 66.648438 -48.753906 68.765625 -44.078125 69.859375 -38.671875 L 51.25 -38.671875 C 50.28125 -41.523438 48.519531 -43.816406 45.96875 -45.546875 C 43.414062 -47.285156 40.46875 -48.15625 37.125 -48.15625 C 34.144531 -48.15625 31.5 -47.46875 29.1875 -46.09375 C 26.875 -44.726562 25.0625 -42.828125 23.75 -40.390625 C 22.445312 -37.960938 21.796875 -35.140625 21.796875 -31.921875 C 21.796875 -28.753906 22.429688 -25.941406 23.703125 -23.484375 C 24.984375 -21.023438 26.765625 -19.109375 29.046875 -17.734375 C 31.328125 -16.367188 33.957031 -15.6875 36.9375 -15.6875 C 40.40625 -15.6875 43.414062 -16.582031 45.96875 -18.375 C 48.519531 -20.164062 50.375 -22.550781 51.53125 -25.53125 L 70.21875 -25.53125 C 69.3125 -20.125 67.304688 -15.398438 64.203125 -11.359375 C 61.109375 -7.316406 57.203125 -4.179688 52.484375 -1.953125 C 47.773438 0.265625 42.472656 1.375 36.578125 1.375 Z M 36.578125 1.375 "/></g></g></g></g></g></g></svg>