<svg xmlns="http://www.w3.org/2000/svg" xmlns:xlink="http://www.w3.org/1999/xlink" width="580" zoomAndPan="magnify" viewBox="0 0 434.88 104.999996" height="140" preserveAspectRatio="xMidYMid meet" version="1.0"><defs><g/><clipPath id="a8bc8298ab"><path d="M 4 2 L 434.761719 2 L 434.761719 104.984375 L 4 104.984375 Z M 4 2 " clip-rule="nonzero"/></clipPath><clipPath id="cf6da9e51e"><path d="M 0.265625 1 L 100 1 L 100 100.328125 L 0.265625 100.328125 Z M 0.265625 1 " clip-rule="nonzero"/></clipPath><clipPath id="7fcd645e24"><path d="M 52 0.414062 L 151.742188 0.414062 L 151.742188 100.328125 L 52 100.328125 Z M 52 0.414062 " clip-rule="nonzero"/></clipPath><clipPath id="86d4957e2b"><path d="M 168 40 L 430.039062 40 L 430.039062 102.984375 L 168 102.984375 Z M 168 40 " clip-rule="nonzero"/></clipPath><clipPath id="091fe1bd7b"><rect x="0" width="263" y="0" height="63"/></clipPath><clipPath id="5780c3ae7a"><rect x="0" width="431" y="0" height="103"/></clipPath></defs><g clip-path="url(#a8bc8298ab)"><g transform="matrix(1, 0, 0, 1, 4, 2)"><g clip-path="url(#5780c3ae7a)"><g clip-path="url(#cf6da9e51e)"><path fill="#000000" d="M 0.347656 100.355469 L 0.347656 16.585938 C 0.347656 1.832031 19.050781 -4.519531 28.039062 7.179688 L 99.613281 100.355469 L 62.949219 100.355469 L 32.539062 62.347656 L 32.539062 100.355469 L 0.347656 100.355469 " fill-opacity="1" fill-rule="nonzero"/></g><g clip-path="url(#7fcd645e24)"><path fill="#5e17eb" d="M 52.214844 15.726562 C 52.214844 19.128906 53.363281 22.4375 55.472656 25.109375 L 114.820312 100.355469 L 151.484375 100.355469 L 79.382812 6.496094 C 70.570312 -4.980469 52.214844 1.253906 52.214844 15.726562 " fill-opacity="1" fill-rule="nonzero"/></g><g clip-path="url(#86d4957e2b)"><g transform="matrix(1, 0, 0, 1, 168, 40)"><g clip-path="url(#091fe1bd7b)"><g fill="#000000" fill-opacity="1"><g transform="translate(1.247367, 58.379262)"><g><path d="M 4.125 0 L 4.125 -39.015625 L 13.328125 -39.015625 L 26.421875 -20.453125 L 39.578125 -39.015625 L 48.71875 -39.015625 L 48.71875 0 L 37.5625 0 L 37.5625 -19.734375 L 30.09375 -9.25 L 22.796875 -9.25 L 15.265625 -19.78125 L 15.265625 0 Z M 4.125 0 "/></g></g></g><g fill="#000000" fill-opacity="1"><g transform="translate(56.083263, 58.379262)"><g><path d="M 22.34375 0.84375 C 18.300781 0.84375 14.742188 -0.0078125 11.671875 -1.71875 C 8.609375 -3.4375 6.210938 -5.828125 4.484375 -8.890625 C 2.753906 -11.953125 1.890625 -15.488281 1.890625 -19.5 C 1.890625 -23.519531 2.742188 -27.0625 4.453125 -30.125 C 6.160156 -33.1875 8.546875 -35.570312 11.609375 -37.28125 C 14.679688 -38.988281 18.222656 -39.84375 22.234375 -39.84375 C 25.734375 -39.84375 28.894531 -39.175781 31.71875 -37.84375 C 34.539062 -36.507812 36.90625 -34.632812 38.8125 -32.21875 C 40.726562 -29.800781 42.019531 -26.9375 42.6875 -23.625 L 31.328125 -23.625 C 30.734375 -25.375 29.65625 -26.773438 28.09375 -27.828125 C 26.53125 -28.890625 24.726562 -29.421875 22.6875 -29.421875 C 20.863281 -29.421875 19.242188 -29.003906 17.828125 -28.171875 C 16.421875 -27.335938 15.316406 -26.175781 14.515625 -24.6875 C 13.722656 -23.207031 13.328125 -21.476562 13.328125 -19.5 C 13.328125 -17.570312 13.710938 -15.851562 14.484375 -14.34375 C 15.265625 -12.84375 16.351562 -11.675781 17.75 -10.84375 C 19.144531 -10.007812 20.753906 -9.59375 22.578125 -9.59375 C 24.691406 -9.59375 26.53125 -10.140625 28.09375 -11.234375 C 29.65625 -12.328125 30.785156 -13.785156 31.484375 -15.609375 L 42.921875 -15.609375 C 42.359375 -12.296875 41.128906 -9.40625 39.234375 -6.9375 C 37.335938 -4.46875 34.945312 -2.550781 32.0625 -1.1875 C 29.1875 0.164062 25.945312 0.84375 22.34375 0.84375 Z M 22.34375 0.84375 "/></g></g></g><g fill="#000000" fill-opacity="1"><g transform="translate(102.783076, 58.379262)"><g><path d="M 27.421875 0 L 27.421875 -14.65625 L 15.375 -14.65625 L 15.375 0 L 4.125 0 L 4.125 -39.015625 L 15.375 -39.015625 L 15.375 -25.03125 L 27.421875 -25.03125 L 27.421875 -39.015625 L 38.671875 -39.015625 L 38.671875 0 Z M 27.421875 0 "/></g></g></g><g fill="#000000" fill-opacity="1"><g transform="translate(147.588182, 58.379262)"><g><path d="M 4.125 0 L 4.125 -39.015625 L 13.328125 -39.015625 L 28.140625 -19.234375 L 28.140625 -39.015625 L 39.234375 -39.015625 L 39.234375 0 L 30.09375 0 L 15.265625 -19.890625 L 15.265625 0 Z M 4.125 0 "/></g></g></g><g fill="#000000" fill-opacity="1"><g transform="translate(193.006277, 58.379262)"><g><path d="M 4.125 0 L 4.125 -39.015625 L 15.375 -39.015625 L 15.375 0 Z M 4.125 0 "/></g></g></g><g fill="#000000" fill-opacity="1"><g transform="translate(214.517675, 58.379262)"><g><path d="M 22.34375 0.84375 C 18.300781 0.84375 14.742188 -0.0078125 11.671875 -1.71875 C 8.609375 -3.4375 6.210938 -5.828125 4.484375 -8.890625 C 2.753906 -11.953125 1.890625 -15.488281 1.890625 -19.5 C 1.890625 -23.519531 2.742188 -27.0625 4.453125 -30.125 C 6.160156 -33.1875 8.546875 -35.570312 11.609375 -37.28125 C 14.679688 -38.988281 18.222656 -39.84375 22.234375 -39.84375 C 25.734375 -39.84375 28.894531 -39.175781 31.71875 -37.84375 C 34.539062 -36.507812 36.90625 -34.632812 38.8125 -32.21875 C 40.726562 -29.800781 42.019531 -26.9375 42.6875 -23.625 L 31.328125 -23.625 C 30.734375 -25.375 29.65625 -26.773438 28.09375 -27.828125 C 26.53125 -28.890625 24.726562 -29.421875 22.6875 -29.421875 C 20.863281 -29.421875 19.242188 -29.003906 17.828125 -28.171875 C 16.421875 -27.335938 15.316406 -26.175781 14.515625 -24.6875 C 13.722656 -23.207031 13.328125 -21.476562 13.328125 -19.5 C 13.328125 -17.570312 13.710938 -15.851562 14.484375 -14.34375 C 15.265625 -12.84375 16.351562 -11.675781 17.75 -10.84375 C 19.144531 -10.007812 20.753906 -9.59375 22.578125 -9.59375 C 24.691406 -9.59375 26.53125 -10.140625 28.09375 -11.234375 C 29.65625 -12.328125 30.785156 -13.785156 31.484375 -15.609375 L 42.921875 -15.609375 C 42.359375 -12.296875 41.128906 -9.40625 39.234375 -6.9375 C 37.335938 -4.46875 34.945312 -2.550781 32.0625 -1.1875 C 29.1875 0.164062 25.945312 0.84375 22.34375 0.84375 Z M 22.34375 0.84375 "/></g></g></g></g></g></g></g></g></g></svg>