<svg xmlns="http://www.w3.org/2000/svg" xmlns:xlink="http://www.w3.org/1999/xlink" width="580" zoomAndPan="magnify" viewBox="0 0 434.88 104.999996" height="140" preserveAspectRatio="xMidYMid meet" version="1.0"><defs><g/><clipPath id="4915f7f39d"><path d="M 4 2 L 430 2 L 430 104.984375 L 4 104.984375 Z M 4 2 " clip-rule="nonzero"/></clipPath><clipPath id="b5cf29da1c"><path d="M 0.265625 1 L 99 1 L 99 99.292969 L 0.265625 99.292969 Z M 0.265625 1 " clip-rule="nonzero"/></clipPath><clipPath id="1213157036"><path d="M 51 0.414062 L 150 0.414062 L 150 99.292969 L 51 99.292969 Z M 51 0.414062 " clip-rule="nonzero"/></clipPath><clipPath id="f68f6b97d0"><path d="M 167 40 L 425.722656 40 L 425.722656 102.984375 L 167 102.984375 Z M 167 40 " clip-rule="nonzero"/></clipPath><clipPath id="3bf00dd357"><rect x="0" width="259" y="0" height="63"/></clipPath><clipPath id="60fa8b5b2d"><rect x="0" width="426" y="0" height="103"/></clipPath></defs><g clip-path="url(#4915f7f39d)"><g transform="matrix(1, 0, 0, 1, 4, 2)"><g clip-path="url(#60fa8b5b2d)"><g clip-path="url(#b5cf29da1c)"><path fill="#ffffff" d="M 0.34375 99.320312 L 0.34375 16.375 C 0.34375 1.765625 18.867188 -4.527344 27.765625 7.058594 L 98.640625 99.320312 L 62.332031 99.320312 L 32.222656 61.6875 L 32.222656 99.320312 L 0.34375 99.320312 " fill-opacity="1" fill-rule="nonzero"/></g><g clip-path="url(#1213157036)"><path fill="#5e17eb" d="M 51.707031 15.523438 C 51.707031 18.894531 52.84375 22.167969 54.929688 24.8125 L 113.695312 99.320312 L 150 99.320312 L 78.609375 6.382812 C 69.878906 -4.980469 51.707031 1.191406 51.707031 15.523438 " fill-opacity="1" fill-rule="nonzero"/></g><g clip-path="url(#f68f6b97d0)"><g transform="matrix(1, 0, 0, 1, 167, 40)"><g clip-path="url(#3bf00dd357)"><g fill="#ffffff" fill-opacity="1"><g transform="translate(0.589239, 57.365009)"><g><path d="M 4.078125 0 L 4.078125 -38.625 L 13.1875 -38.625 L 26.15625 -20.25 L 39.1875 -38.625 L 48.234375 -38.625 L 48.234375 0 L 37.203125 0 L 37.203125 -19.53125 L 29.796875 -9.15625 L 22.578125 -9.15625 L 15.125 -19.59375 L 15.125 0 Z M 4.078125 0 "/></g></g></g><g fill="#ffffff" fill-opacity="1"><g transform="translate(54.887062, 57.365009)"><g><path d="M 22.125 0.828125 C 18.113281 0.828125 14.59375 -0.015625 11.5625 -1.703125 C 8.53125 -3.398438 6.15625 -5.765625 4.4375 -8.796875 C 2.726562 -11.835938 1.875 -15.34375 1.875 -19.3125 C 1.875 -23.289062 2.71875 -26.796875 4.40625 -29.828125 C 6.101562 -32.859375 8.46875 -35.21875 11.5 -36.90625 C 14.539062 -38.601562 18.046875 -39.453125 22.015625 -39.453125 C 25.472656 -39.453125 28.597656 -38.789062 31.390625 -37.46875 C 34.191406 -36.144531 36.539062 -34.285156 38.4375 -31.890625 C 40.332031 -29.503906 41.613281 -26.675781 42.28125 -23.40625 L 31.015625 -23.40625 C 30.421875 -25.132812 29.351562 -26.519531 27.8125 -27.5625 C 26.269531 -28.613281 24.488281 -29.140625 22.46875 -29.140625 C 20.65625 -29.140625 19.050781 -28.722656 17.65625 -27.890625 C 16.257812 -27.066406 15.164062 -25.914062 14.375 -24.4375 C 13.582031 -22.96875 13.1875 -21.257812 13.1875 -19.3125 C 13.1875 -17.40625 13.570312 -15.703125 14.34375 -14.203125 C 15.113281 -12.710938 16.1875 -11.554688 17.5625 -10.734375 C 18.945312 -9.910156 20.539062 -9.5 22.34375 -9.5 C 24.445312 -9.5 26.269531 -10.039062 27.8125 -11.125 C 29.351562 -12.207031 30.476562 -13.648438 31.1875 -15.453125 L 42.5 -15.453125 C 41.945312 -12.179688 40.726562 -9.320312 38.84375 -6.875 C 36.96875 -4.425781 34.601562 -2.53125 31.75 -1.1875 C 28.90625 0.15625 25.695312 0.828125 22.125 0.828125 Z M 22.125 0.828125 "/></g></g></g><g fill="#ffffff" fill-opacity="1"><g transform="translate(101.128637, 57.365009)"><g><path d="M 27.15625 0 L 27.15625 -14.515625 L 15.234375 -14.515625 L 15.234375 0 L 4.078125 0 L 4.078125 -38.625 L 15.234375 -38.625 L 15.234375 -24.78125 L 27.15625 -24.78125 L 27.15625 -38.625 L 38.296875 -38.625 L 38.296875 0 Z M 27.15625 0 "/></g></g></g><g fill="#ffffff" fill-opacity="1"><g transform="translate(145.494096, 57.365009)"><g><path d="M 4.078125 0 L 4.078125 -38.625 L 13.1875 -38.625 L 27.875 -19.046875 L 27.875 -38.625 L 38.859375 -38.625 L 38.859375 0 L 29.796875 0 L 15.125 -19.703125 L 15.125 0 Z M 4.078125 0 "/></g></g></g><g fill="#ffffff" fill-opacity="1"><g transform="translate(190.46653, 57.365009)"><g><path d="M 4.078125 0 L 4.078125 -38.625 L 15.234375 -38.625 L 15.234375 0 Z M 4.078125 0 "/></g></g></g><g fill="#ffffff" fill-opacity="1"><g transform="translate(211.76685, 57.365009)"><g><path d="M 22.125 0.828125 C 18.113281 0.828125 14.59375 -0.015625 11.5625 -1.703125 C 8.53125 -3.398438 6.15625 -5.765625 4.4375 -8.796875 C 2.726562 -11.835938 1.875 -15.34375 1.875 -19.3125 C 1.875 -23.289062 2.71875 -26.796875 4.40625 -29.828125 C 6.101562 -32.859375 8.46875 -35.21875 11.5 -36.90625 C 14.539062 -38.601562 18.046875 -39.453125 22.015625 -39.453125 C 25.472656 -39.453125 28.597656 -38.789062 31.390625 -37.46875 C 34.191406 -36.144531 36.539062 -34.285156 38.4375 -31.890625 C 40.332031 -29.503906 41.613281 -26.675781 42.28125 -23.40625 L 31.015625 -23.40625 C 30.421875 -25.132812 29.351562 -26.519531 27.8125 -27.5625 C 26.269531 -28.613281 24.488281 -29.140625 22.46875 -29.140625 C 20.65625 -29.140625 19.050781 -28.722656 17.65625 -27.890625 C 16.257812 -27.066406 15.164062 -25.914062 14.375 -24.4375 C 13.582031 -22.96875 13.1875 -21.257812 13.1875 -19.3125 C 13.1875 -17.40625 13.570312 -15.703125 14.34375 -14.203125 C 15.113281 -12.710938 16.1875 -11.554688 17.5625 -10.734375 C 18.945312 -9.910156 20.539062 -9.5 22.34375 -9.5 C 24.445312 -9.5 26.269531 -10.039062 27.8125 -11.125 C 29.351562 -12.207031 30.476562 -13.648438 31.1875 -15.453125 L 42.5 -15.453125 C 41.945312 -12.179688 40.726562 -9.320312 38.84375 -6.875 C 36.96875 -4.425781 34.601562 -2.53125 31.75 -1.1875 C 28.90625 0.15625 25.695312 0.828125 22.125 0.828125 Z M 22.125 0.828125 "/></g></g></g></g></g></g></g></g></g></svg>